<svg version="1.1" id="Layer_1" xmlns="http://www.w3.org/2000/svg" xmlns:xlink="http://www.w3.org/1999/xlink" x="0px" y="0px"
	 width="63.285px" height="63.3px" viewBox="0 0 63.285 63.3" enable-background="new 0 0 63.285 63.3" xml:space="preserve">
<path fill="#fff" d="M31.643,0.001c-17.48,0-31.65,14.173-31.65,31.649c0,17.479,14.17,31.647,31.65,31.647
	c17.478,0,31.65-14.168,31.65-31.647C63.293,14.174,49.121,0.001,31.643,0.001z M40.02,31.518h-5.479c0,8.758,0,19.545,0,19.545
	h-8.125c0,0,0-10.676,0-19.545h-3.862v-6.9h3.862v-4.472c0-3.2,1.52-8.195,8.199-8.195l6.014,0.022v6.702c0,0-3.656,0-4.367,0
	c-0.713,0-1.721,0.356-1.721,1.878v4.064h6.191L40.02,31.518z"/>
</svg>
