<?xml version="1.0" encoding="utf-8"?>
<!-- Generator: Adobe Illustrator 16.0.0, SVG Export Plug-In . SVG Version: 6.00 Build 0)  -->
<!DOCTYPE svg PUBLIC "-//W3C//DTD SVG 1.1//EN" "http://www.w3.org/Graphics/SVG/1.1/DTD/svg11.dtd">
<svg version="1.1" id="Layer_1" xmlns="http://www.w3.org/2000/svg" xmlns:xlink="http://www.w3.org/1999/xlink" x="0px" y="0px"
	 width="450.52px" height="72.16px" viewBox="0 0 450.52 72.16" enable-background="new 0 0 450.52 72.16" xml:space="preserve">
<g opacity="0.2">
	<g>
		<rect x="19.18" y="4.06" opacity="0.3" fill="#FFFFFF" width="16.46" height="16.46"/>
		<rect x="35.58" y="4.06" opacity="0.2" fill="#FFFFFF" width="16.46" height="16.46"/>
		<rect x="52.29" y="4.06" opacity="0.6" fill="#FFFFFF" width="16.46" height="16.46"/>
		<rect x="68.75" y="4.06" opacity="0.6" fill="#FFFFFF" width="16.46" height="16.46"/>
	</g>
	<g>
		<rect x="101.33" y="4.06" opacity="0.3" fill="#FFFFFF" width="16.46" height="16.46"/>
		<rect x="117.73" y="4.06" opacity="0.2" fill="#FFFFFF" width="16.46" height="16.46"/>
		<rect x="134.44" y="4.06" opacity="0.6" fill="#FFFFFF" width="16.46" height="16.46"/>
		<rect x="150.9" y="4.06" opacity="0.2" fill="#FFFFFF" width="16.46" height="16.46"/>
	</g>
	<g>
		<rect x="183.83" y="4.06" opacity="0.3" fill="#FFFFFF" width="16.46" height="16.46"/>
		<rect x="200.23" y="4.06" opacity="0.2" fill="#FFFFFF" width="16.46" height="16.46"/>
		<rect x="216.94" y="4.06" opacity="0.6" fill="#FFFFFF" width="16.46" height="16.46"/>
		<rect x="233.41" y="4.06" opacity="0.2" fill="#FFFFFF" width="16.46" height="16.46"/>
	</g>
	<g>
		<rect x="216.94" y="20.52" opacity="0.3" fill="#FFFFFF" width="16.46" height="16.46"/>
		<rect x="200.54" y="20.52" opacity="0.2" fill="#FFFFFF" width="16.46" height="16.46"/>
		<rect x="183.83" y="20.52" opacity="0.6" fill="#FFFFFF" width="16.46" height="16.46"/>
		<rect x="167.37" y="20.52" opacity="0.2" fill="#FFFFFF" width="16.46" height="16.46"/>
	</g>
	<g>
		<rect x="134.44" y="20.52" opacity="0.3" fill="#FFFFFF" width="16.46" height="16.46"/>
		<rect x="118.04" y="20.52" opacity="0.2" fill="#FFFFFF" width="16.46" height="16.46"/>
		<rect x="101.33" y="20.52" opacity="0.6" fill="#FFFFFF" width="16.46" height="16.46"/>
		<rect x="84.87" y="20.52" opacity="0.2" fill="#FFFFFF" width="16.46" height="16.46"/>
	</g>
	<g>
		<rect x="52.29" y="20.52" opacity="0.3" fill="#FFFFFF" width="16.46" height="16.46"/>
		<rect x="35.89" y="20.52" opacity="0.2" fill="#FFFFFF" width="16.46" height="16.46"/>
		<rect x="19.18" y="20.52" opacity="0.6" fill="#FFFFFF" width="16.46" height="16.46"/>
		<rect x="2.71" y="20.52" opacity="0.2" fill="#FFFFFF" width="16.46" height="16.46"/>
	</g>
	<g>
		<rect x="19.18" y="37" opacity="0.3" fill="#FFFFFF" width="16.46" height="16.46"/>
		<rect x="35.58" y="36.45" opacity="0.2" fill="#FFFFFF" width="16.46" height="16.46"/>
		<rect x="52.29" y="36.45" opacity="0.6" fill="#FFFFFF" width="16.46" height="16.46"/>
		<rect x="68.75" y="36.45" opacity="0.2" fill="#FFFFFF" width="16.46" height="16.46"/>
	</g>
	<g>
		<rect x="101.33" y="36.45" opacity="0.3" fill="#FFFFFF" width="16.46" height="16.46"/>
		<rect x="117.73" y="36.45" opacity="0.2" fill="#FFFFFF" width="16.46" height="16.46"/>
		<rect x="134.44" y="36.45" opacity="0.6" fill="#FFFFFF" width="16.46" height="16.46"/>
		<rect x="150.9" y="36.45" opacity="0.2" fill="#FFFFFF" width="16.46" height="16.46"/>
	</g>
	<g>
		<rect x="183.83" y="36.45" opacity="0.3" fill="#FFFFFF" width="16.46" height="16.46"/>
		<rect x="200.23" y="36.45" opacity="0.2" fill="#FFFFFF" width="16.46" height="16.46"/>
		<rect x="216.94" y="36.45" opacity="0.6" fill="#FFFFFF" width="16.46" height="16.46"/>
		<rect x="233.41" y="36.45" opacity="0.2" fill="#FFFFFF" width="16.46" height="16.46"/>
	</g>
	<g>
		<rect x="216.94" y="52.91" opacity="0.3" fill="#FFFFFF" width="16.46" height="16.46"/>
		<rect x="200.54" y="52.91" opacity="0.2" fill="#FFFFFF" width="16.46" height="16.46"/>
		<rect x="183.83" y="52.91" opacity="0.6" fill="#FFFFFF" width="16.46" height="16.46"/>
		<rect x="167.37" y="52.91" opacity="0.2" fill="#FFFFFF" width="16.46" height="16.46"/>
	</g>
	<g>
		<rect x="266.33" y="4.06" opacity="0.3" fill="#FFFFFF" width="16.46" height="16.46"/>
		<rect x="282.73" y="4.06" opacity="0.2" fill="#FFFFFF" width="16.46" height="16.46"/>
		<rect x="299.44" y="4.06" opacity="0.6" fill="#FFFFFF" width="16.46" height="16.46"/>
		<rect x="315.91" y="4.06" opacity="0.2" fill="#FFFFFF" width="16.46" height="16.46"/>
	</g>
	<g>
		<rect x="299.44" y="20.52" opacity="0.3" fill="#FFFFFF" width="16.46" height="16.46"/>
		<rect x="283.04" y="20.52" opacity="0.2" fill="#FFFFFF" width="16.46" height="16.46"/>
		<rect x="266.33" y="20.52" opacity="0.6" fill="#FFFFFF" width="16.46" height="16.46"/>
		<rect x="249.87" y="20.52" opacity="0.2" fill="#FFFFFF" width="16.46" height="16.46"/>
	</g>
	<g>
		<rect x="266.33" y="36.45" opacity="0.3" fill="#FFFFFF" width="16.46" height="16.46"/>
		<rect x="282.73" y="36.45" opacity="0.2" fill="#FFFFFF" width="16.46" height="16.46"/>
		<rect x="299.44" y="36.45" opacity="0.6" fill="#FFFFFF" width="16.46" height="16.46"/>
		<rect x="315.91" y="36.45" opacity="0.2" fill="#FFFFFF" width="16.46" height="16.46"/>
	</g>
	<g>
		<rect x="299.44" y="52.91" opacity="0.3" fill="#FFFFFF" width="16.46" height="16.46"/>
		<rect x="283.04" y="52.91" opacity="0.2" fill="#FFFFFF" width="16.46" height="16.46"/>
		<rect x="266.33" y="52.91" opacity="0.6" fill="#FFFFFF" width="16.46" height="16.46"/>
		<rect x="249.87" y="52.91" opacity="0.2" fill="#FFFFFF" width="16.46" height="16.46"/>
	</g>
	<g>
		<rect x="348.83" y="4.06" opacity="0.3" fill="#FFFFFF" width="16.46" height="16.46"/>
		<rect x="365.23" y="4.06" opacity="0.2" fill="#FFFFFF" width="16.46" height="16.46"/>
		<rect x="381.94" y="4.06" opacity="0.6" fill="#FFFFFF" width="16.46" height="16.46"/>
		<rect x="398.41" y="4.06" opacity="0.2" fill="#FFFFFF" width="16.46" height="16.46"/>
	</g>
	<g>
		<rect x="381.94" y="20.52" opacity="0.3" fill="#FFFFFF" width="16.46" height="16.46"/>
		<rect x="365.54" y="20.52" opacity="0.2" fill="#FFFFFF" width="16.46" height="16.46"/>
		<rect x="348.83" y="20.52" opacity="0.6" fill="#FFFFFF" width="16.46" height="16.46"/>
		<rect x="332.37" y="20.52" opacity="0.2" fill="#FFFFFF" width="16.46" height="16.46"/>
	</g>
	<g>
		<rect x="348.83" y="36.45" opacity="0.3" fill="#FFFFFF" width="16.46" height="16.46"/>
		<rect x="365.23" y="36.45" opacity="0.2" fill="#FFFFFF" width="16.46" height="16.46"/>
		<rect x="381.94" y="36.45" opacity="0.6" fill="#FFFFFF" width="16.46" height="16.46"/>
		<rect x="398.41" y="36.45" opacity="0.2" fill="#FFFFFF" width="16.46" height="16.46"/>
	</g>
	<g>
		<rect x="381.94" y="52.91" opacity="0.3" fill="#FFFFFF" width="16.46" height="16.46"/>
		<rect x="365.54" y="52.91" opacity="0.2" fill="#FFFFFF" width="16.46" height="16.46"/>
		<rect x="348.83" y="52.91" opacity="0.6" fill="#FFFFFF" width="16.46" height="16.46"/>
		<rect x="332.37" y="52.91" opacity="0.2" fill="#FFFFFF" width="16.46" height="16.46"/>
	</g>
	<g>
		<rect x="431.33" y="4.06" opacity="0.3" fill="#FFFFFF" width="16.46" height="16.46"/>
	</g>
	<g>
		<rect x="431.33" y="20.52" opacity="0.6" fill="#FFFFFF" width="16.46" height="16.46"/>
		<rect x="414.87" y="20.52" opacity="0.2" fill="#FFFFFF" width="16.46" height="16.46"/>
	</g>
	<g>
		<rect x="431.33" y="36.45" opacity="0.3" fill="#FFFFFF" width="16.46" height="16.46"/>
	</g>
	<g>
		<rect x="431.33" y="52.91" opacity="0.6" fill="#FFFFFF" width="16.46" height="16.46"/>
		<rect x="414.87" y="52.91" opacity="0.2" fill="#FFFFFF" width="16.46" height="16.46"/>
	</g>
	<g>
		<rect x="134.44" y="52.91" opacity="0.3" fill="#FFFFFF" width="16.46" height="16.46"/>
		<rect x="118.04" y="52.91" opacity="0.2" fill="#FFFFFF" width="16.46" height="16.46"/>
		<rect x="101.33" y="52.91" opacity="0.6" fill="#FFFFFF" width="16.46" height="16.46"/>
		<rect x="84.87" y="52.91" opacity="0.2" fill="#FFFFFF" width="16.46" height="16.46"/>
	</g>
	<g>
		<rect x="52.29" y="52.91" opacity="0.3" fill="#FFFFFF" width="16.46" height="16.46"/>
		<rect x="35.89" y="52.91" opacity="0.2" fill="#FFFFFF" width="16.46" height="16.46"/>
		<rect x="19.18" y="52.91" opacity="0.6" fill="#FFFFFF" width="16.46" height="16.46"/>
		<rect x="2.71" y="52.91" opacity="0.2" fill="#FFFFFF" width="16.46" height="16.46"/>
	</g>
</g>
</svg>
