<svg version="1.1" id="Layer_1" xmlns="http://www.w3.org/2000/svg" xmlns:xlink="http://www.w3.org/1999/xlink" x="0px" y="0px"
	 width="63.285px" height="63.3px" viewBox="0 0 63.285 63.3" enable-background="new 0 0 63.285 63.3" xml:space="preserve">
<g>
	<path fill="#fff" d="M39.105,24.137c-1.792,0.002-3.581,0-5.372,0c-0.136,0-0.266,0.031-0.383,0.105
		c-0.305,0.191-0.403,0.473-0.367,0.813c0.002,0.018,0.003,0.035,0.003,0.053c-0.001,1.831-0.004,3.661-0.005,5.493
		c0,0.464,0.316,0.784,0.779,0.792c0.123,0.001,0.246,0.001,0.369,0.001c1.133,0.001,2.264,0.003,3.397,0.005
		c-0.091,0.515-0.288,0.97-0.681,1.333c-0.326,0.304-0.721,0.439-1.141,0.536c-0.331,0.074-0.434,0.188-0.434,0.453
		c0,0.076,0.002,0.152,0.004,0.229c-0.004,0.348-0.007,0.693-0.011,1.041c0.003,0.193,0.004,0.387,0.007,0.582
		c0.003,0.273,0.211,0.43,0.485,0.389c0.358-0.053,0.712-0.133,1.061-0.232c0.013-0.006,0.024-0.016,0.039-0.023
		c0.022-0.006,0.045-0.012,0.067-0.018c0.03,0.037,0.065,0.047,0.104,0.047c-0.038,0-0.073-0.01-0.102-0.047
		c0.039-0.021,0.08-0.045,0.123-0.063c1.669-0.693,2.803-2.385,2.804-4.193c0.001-2.023,0-4.047,0-6.07
		c0-0.093,0.007-0.186-0.03-0.275C39.977,24.617,39.582,24.136,39.105,24.137z"/>
	<path fill="#fff" d="M31.645,0C14.165,0-0.007,14.173-0.007,31.651c0,17.481,14.171,31.649,31.651,31.649
		c17.479,0,31.648-14.168,31.648-31.649C63.293,14.173,49.124,0,31.645,0z M46.942,31.307c-0.187,1.508-0.537,2.975-1.082,4.395
		c-0.004,0.012-0.014,0.018-0.02,0.029c-0.199,0.518-0.427,1.023-0.664,1.527c-0.471,0.992-1.029,1.934-1.654,2.834
		c-0.283,0.408-0.57,0.814-0.891,1.195c-0.277,0.33-0.53,0.682-0.824,0.996c-0.191,0.205-0.378,0.412-0.568,0.615
		c-0.443,0.479-0.904,0.936-1.385,1.375c-2.42,2.199-5.134,3.953-8.088,5.342c-0.031,0.014-0.064,0.025-0.115,0.047
		c-0.004-0.074-0.008-0.137-0.008-0.197c0-1.574-0.003-3.148,0.004-4.721c0.002-0.186-0.047-0.23-0.229-0.232
		c-2.939-0.037-5.645-0.861-8.124-2.436c-0.81-0.516-1.557-1.109-2.257-1.766c-1.328-1.25-2.388-2.695-3.212-4.316
		c-0.044-0.088-0.088-0.176-0.132-0.264c-0.502-1.031-0.875-2.109-1.125-3.224c-0.336-1.501-0.448-3.021-0.334-4.557
		c0.237-3.165,1.329-6.005,3.314-8.481c2.412-3.01,5.529-4.874,9.325-5.592c0.519-0.1,1.043-0.158,1.568-0.206
		c0.039-0.002,0.085,0.017,0.107-0.035c0.682,0,1.363,0,2.043,0c0.285,0.068,0.578,0.063,0.867,0.099
		c2.369,0.279,4.553,1.069,6.558,2.356c1.077,0.693,2.052,1.509,2.923,2.445c2.063,2.224,3.367,4.827,3.914,7.808
		c0.205,1.119,0.277,2.249,0.221,3.384C47.05,30.255,47.008,30.784,46.942,31.307z"/>
	<path fill="#fff" d="M29.554,24.137c-1.802,0.002-3.604,0-5.405,0c-0.179,0-0.327,0.07-0.464,0.185
		c-0.248,0.212-0.274,0.488-0.248,0.785c-0.002,1.854-0.005,3.708-0.002,5.562c0,0.322,0.239,0.606,0.552,0.694
		c0.103,0.027,0.207,0.032,0.313,0.032c1.226,0.001,2.451,0.003,3.677,0.005c-0.021,0.091-0.042,0.183-0.063,0.271
		c-0.142,0.575-0.46,1.014-0.971,1.319c-0.276,0.165-0.585,0.227-0.89,0.303c-0.104,0.027-0.181,0.076-0.248,0.152
		c-0.137,0.15-0.07,0.334-0.08,0.504c0,0.582,0,1.164-0.001,1.746c0.078,0.188,0.214,0.303,0.423,0.273
		c0.27-0.039,0.541-0.08,0.807-0.154c0.623-0.168,1.174-0.475,1.683-0.865c0.05-0.049,0.101-0.098,0.151-0.145
		c0.98-0.916,1.502-2.042,1.512-3.383c0.017-2.018,0.006-4.039,0.004-6.06c0-0.093,0.008-0.186-0.03-0.275
		C30.427,24.617,30.031,24.136,29.554,24.137z"/>
</g>
</svg>
