<svg version="1.1" id="Layer_1" xmlns="http://www.w3.org/2000/svg" xmlns:xlink="http://www.w3.org/1999/xlink" x="0px" y="0px"
	 width="63.285px" height="63.3px" viewBox="0 0 63.285 63.3" enable-background="new 0 0 63.285 63.3" xml:space="preserve">
<path fill="#fff" d="M31.643,0C14.163,0-0.008,14.169-0.008,31.649c0,17.479,14.171,31.651,31.651,31.651
	c17.479,0,31.65-14.172,31.65-31.651C63.293,14.169,49.121,0,31.643,0z M21.085,14.445h21.111c1.842,0,3.509,0.753,4.714,1.967
	l-11.93,11.93c-1.779,1.78-4.896,1.781-6.678,0L16.372,16.411C17.577,15.198,19.244,14.445,21.085,14.445z M48.847,28.118v14.087
	c0,3.667-2.983,6.649-6.65,6.649H21.085c-3.666,0-6.648-2.982-6.648-6.649V28.118v-7.024c0-0.362,0.051-0.711,0.106-1.059
	l11.033,11.033c1.619,1.617,3.773,2.509,6.065,2.509c2.293,0,4.447-0.892,6.065-2.509L48.74,20.035
	c0.055,0.348,0.106,0.696,0.106,1.059V28.118z"/>
</svg>
