<svg version="1.1" id="Layer_1" xmlns="http://www.w3.org/2000/svg" xmlns:xlink="http://www.w3.org/1999/xlink" x="0px" y="0px"
	 width="63.285px" height="63.3px" viewBox="0 0 63.285 63.3" enable-background="new 0 0 63.285 63.3" xml:space="preserve">
<g>
	<path fill="#fff" d="M38.879,31.596c-0.848-0.553-1.889-1.027-3.092-1.411c-1.189-0.382-2.533-0.735-3.996-1.047
		c-1.154-0.269-1.998-0.475-2.5-0.612c-0.491-0.136-0.98-0.326-1.457-0.567c-0.457-0.229-0.819-0.502-1.076-0.818
		c-0.242-0.296-0.361-0.641-0.361-1.052c0-0.668,0.367-1.237,1.121-1.732c0.783-0.512,1.836-0.773,3.131-0.773
		c1.396,0,2.411,0.236,3.02,0.701c0.625,0.474,1.17,1.149,1.622,2.005c0.39,0.668,0.739,1.138,1.077,1.434
		c0.364,0.324,0.889,0.487,1.558,0.487c0.737,0,1.362-0.261,1.856-0.775c0.492-0.51,0.742-1.098,0.742-1.745
		c0-0.67-0.192-1.365-0.564-2.061c-0.372-0.693-0.965-1.355-1.76-1.976c-0.787-0.618-1.793-1.117-2.984-1.491
		c-1.185-0.367-2.604-0.555-4.219-0.555c-2.018,0-3.803,0.283-5.302,0.838c-1.521,0.563-2.701,1.381-3.509,2.436
		c-0.815,1.062-1.228,2.292-1.228,3.657c0,1.434,0.393,2.651,1.171,3.625c0.763,0.954,1.807,1.717,3.104,2.27
		c1.267,0.54,2.861,1.014,4.737,1.418c1.38,0.289,2.493,0.564,3.315,0.82c0.787,0.246,1.438,0.605,1.929,1.064
		c0.47,0.439,0.698,1.002,0.698,1.715c0,0.904-0.436,1.639-1.338,2.254c-0.921,0.631-2.146,0.949-3.641,0.949
		c-1.086,0-1.971-0.158-2.626-0.467c-0.651-0.309-1.159-0.703-1.515-1.176c-0.369-0.486-0.719-1.104-1.038-1.836
		c-0.288-0.674-0.644-1.199-1.062-1.549c-0.434-0.369-0.97-0.557-1.591-0.557c-0.757,0-1.391,0.236-1.888,0.703
		c-0.5,0.467-0.753,1.045-0.753,1.707c0,1.057,0.391,2.16,1.157,3.264c0.761,1.098,1.761,1.986,2.976,2.641
		c1.7,0.902,3.875,1.361,6.472,1.361c2.163,0,4.063-0.336,5.648-0.994c1.601-0.668,2.836-1.604,3.672-2.783
		c0.84-1.193,1.265-2.549,1.265-4.037c0-1.242-0.246-2.314-0.735-3.184C40.43,32.884,39.745,32.159,38.879,31.596z"/>
	<path fill="#fff" d="M31.642,0C14.162,0-0.008,14.174-0.008,31.651c0,17.479,14.169,31.649,31.649,31.649
		c17.481,0,31.65-14.17,31.65-31.649C63.292,14.174,49.123,0,31.642,0z M39.381,51.345c-1.791,0-3.479-0.451-4.954-1.244
		c-1.075,0.195-2.179,0.301-3.309,0.301c-9.984,0-18.076-8.094-18.076-18.075c0-1.245,0.125-2.46,0.365-3.635
		c-0.914-1.557-1.441-3.367-1.441-5.302c0-5.789,4.692-10.483,10.482-10.483c2.052,0,3.961,0.592,5.577,1.611
		c1.004-0.176,2.038-0.267,3.093-0.267c9.981,0,18.075,8.094,18.075,18.075c0,1.331-0.146,2.627-0.42,3.877
		c0.697,1.404,1.092,2.982,1.092,4.658C49.865,46.651,45.171,51.345,39.381,51.345z"/>
</g>
</svg>
