<svg version="1.1" id="Layer_1" xmlns="http://www.w3.org/2000/svg" xmlns:xlink="http://www.w3.org/1999/xlink" x="0px" y="0px"
	 width="63.285px" height="63.3px" viewBox="0 0 63.285 63.3" enable-background="new 0 0 63.285 63.3" xml:space="preserve">
<path fill="#fff" d="M31.637,0C14.158,0-0.013,14.174-0.013,31.651c0,17.479,14.171,31.648,31.65,31.648
	c17.48,0,31.648-14.169,31.648-31.648C63.285,14.174,49.117,0,31.637,0z M47.582,25.27c0.016,0.344,0.021,0.688,0.021,1.032
	c0,10.541-8.021,22.695-22.693,22.695c-4.505,0-8.697-1.32-12.228-3.584c0.624,0.073,1.259,0.11,1.902,0.11
	c3.737,0,7.177-1.274,9.906-3.414c-3.49-0.065-6.436-2.371-7.45-5.539c0.486,0.095,0.985,0.144,1.501,0.144
	c0.728,0,1.432-0.097,2.102-0.28c-3.65-0.733-6.399-3.958-6.399-7.82c0-0.035,0-0.067,0.001-0.102c1.075,0.598,2.305,0.957,3.613,1
	c-2.141-1.434-3.549-3.873-3.549-6.641c0-1.462,0.394-2.833,1.08-4.01c3.934,4.826,9.812,8,16.44,8.333
	c-0.136-0.584-0.206-1.192-0.206-1.817c0-4.404,3.571-7.976,7.975-7.976c2.295,0,4.369,0.969,5.822,2.518
	c1.818-0.356,3.525-1.021,5.066-1.936c-0.596,1.864-1.861,3.427-3.508,4.413c1.613-0.193,3.15-0.622,4.582-1.256
	C50.494,22.739,49.141,24.146,47.582,25.27z"/>
</svg>
